<?xml version="1.0" standalone="no"?>
<!DOCTYPE svg PUBLIC "-//W3C//DTD SVG 20010904//EN"
 "http://www.w3.org/TR/2001/REC-SVG-20010904/DTD/svg10.dtd">
<svg version="1.0" xmlns="http://www.w3.org/2000/svg"
 width="878.000000pt" height="878.000000pt" viewBox="0 0 878.000000 878.000000"
 preserveAspectRatio="xMidYMid meet">
<metadata>
Created by potrace 1.11, written by Peter Selinger 2001-2013
</metadata>
<g transform="translate(0.000000,878.000000) scale(0.100000,-0.100000)"
fill="#000000" stroke="none">
<path d="M4226 8354 c-223 -54 -412 -240 -472 -465 -22 -84 -22 -234 1 -319
44 -170 176 -331 338 -410 l87 -43 0 -449 0 -448 -1308 0 c-1428 0 -1356 3
-1480 -58 -74 -35 -179 -140 -220 -218 -56 -107 -62 -154 -62 -501 l0 -313
-122 0 c-145 -1 -188 -9 -287 -57 -132 -63 -241 -194 -288 -348 -17 -57 -18
-128 -18 -1425 0 -1293 1 -1368 18 -1425 39 -128 120 -239 225 -308 113 -74
166 -90 329 -95 l142 -4 3 -327 c4 -303 6 -330 25 -383 60 -159 174 -272 334
-330 l64 -23 2845 0 c2754 0 2847 1 2900 19 178 60 306 189 360 361 9 27 15
148 19 360 l6 320 145 6 c108 4 159 10 201 25 186 66 324 222 364 412 12 56
15 283 15 1398 0 1293 -1 1333 -20 1408 -25 99 -61 165 -130 240 -63 68 -129
113 -215 146 -49 19 -87 24 -210 29 l-150 6 -6 330 c-5 303 -7 335 -27 396
-42 128 -138 241 -254 300 -123 62 -49 59 -1480 59 l-1308 0 0 448 0 449 83
41 c210 104 343 305 355 534 10 204 -59 373 -206 509 -75 68 -211 140 -300
158 -73 15 -225 12 -296 -5z m316 -286 c211 -97 283 -358 151 -548 -50 -72
-120 -119 -226 -154 l-87 -28 -78 26 c-194 65 -295 190 -295 366 0 164 104
303 266 356 68 22 200 13 269 -18z m2707 -2144 c64 -32 116 -98 131 -167 6
-31 10 -286 10 -702 l0 -655 -353 0 -353 0 -23 68 c-107 310 -325 526 -628
619 -80 24 -103 27 -248 27 -120 0 -175 -4 -221 -17 -320 -89 -552 -310 -659
-627 l-22 -65 -516 -5 c-283 -3 -515 -3 -515 0 6 34 -78 226 -140 319 -115
173 -294 302 -509 368 -77 23 -106 26 -233 27 -112 1 -162 -3 -220 -18 -317
-81 -568 -315 -666 -621 l-22 -70 -335 -3 -334 -2 -6 106 c-11 178 -8 1225 3
1266 17 59 69 120 129 151 l55 27 2811 0 2811 0 53 -26z m-4164 -1089 c233
-49 435 -245 489 -475 9 -36 16 -101 16 -145 0 -173 -59 -314 -185 -441 -96
-97 -202 -155 -330 -180 -266 -52 -550 85 -672 323 -50 97 -60 128 -72 223
-54 424 335 783 754 695z m2849 -5 c349 -89 551 -439 456 -790 -24 -90 -81
-182 -165 -265 -129 -130 -263 -187 -440 -188 -415 -1 -718 385 -616 785 87
338 430 544 765 458z m-2904 -2896 l0 -294 -22 0 c-36 0 -120 44 -155 81 -54
57 -77 122 -77 214 0 104 27 168 96 230 46 41 131 80 151 68 4 -2 7 -137 7
-299z m640 1 l0 -305 -250 0 -250 0 0 305 0 305 250 0 250 0 0 -305z m640 0
l0 -305 -250 0 -250 0 0 305 0 305 250 0 250 0 0 -305z m650 0 l0 -305 -252 2
-253 3 -3 303 -2 302 255 0 255 0 0 -305z m640 0 l0 -305 -250 0 -250 0 0 305
0 305 250 0 250 0 0 -305z m241 269 c95 -47 141 -124 147 -245 5 -105 -12
-167 -63 -227 -37 -43 -124 -92 -162 -92 l-23 0 0 300 0 300 28 -6 c15 -4 48
-17 73 -30z"/>
<path d="M4275 7991 c-56 -25 -101 -66 -133 -120 -24 -40 -27 -56 -27 -131 0
-68 5 -93 22 -125 91 -170 328 -200 454 -57 123 141 65 376 -109 438 -55 19
-159 17 -207 -5z"/>
</g>
</svg>
